HIERARCHY
ROOT Hips
{
  OFFSET -331.093 83.8371 -317.828
  CHANNELS 6 Xposition Yposition Zposition Zrotation Xrotation Yrotation
  JOINT LeftUpLeg
  {
    OFFSET 8.64259 1.95398 -2.38835
    CHANNELS 3 Zrotation Xrotation Yrotation
    JOINT LeftLeg
    {
      OFFSET 43.7702 0 0
      CHANNELS 3 Zrotation Xrotation Yrotation
      JOINT LeftFoot
      {
        OFFSET 40.6238 0 0
        CHANNELS 3 Zrotation Xrotation Yrotation
        JOINT LeftToeBase
        {
          OFFSET 12.7242 0 0
          CHANNELS 3 Zrotation Xrotation Yrotation
          End Site
          {
            OFFSET 0 0 0
          }
        }
      }
    }
  }
  JOINT RightUpLeg
  {
    OFFSET -8.2249 1.95398 -2.59336
    CHANNELS 3 Zrotation Xrotation Yrotation
    JOINT RightLeg
    {
      OFFSET 43.5653 0 0
      CHANNELS 3 Zrotation Xrotation Yrotation
      JOINT RightFoot
      {
        OFFSET 40.6238 0 0
        CHANNELS 3 Zrotation Xrotation Yrotation
        JOINT RightToeBase
        {
          OFFSET 12.7242 0 0
          CHANNELS 3 Zrotation Xrotation Yrotation
          End Site
          {
            OFFSET 0 0 0
          }
        }
      }
    }
  }
  JOINT Spine
  {
    OFFSET 0.165834 0.87714 6.61349
    CHANNELS 3 Zrotation Xrotation Yrotation
    JOINT Spine1
    {
      OFFSET 7.38963 1.71661e-005 0
      CHANNELS 3 Zrotation Xrotation Yrotation
      JOINT Spine2
      {
        OFFSET 11.9445 1.14441e-005 0
        CHANNELS 3 Zrotation Xrotation Yrotation
        JOINT Spine3
        {
          OFFSET 14.7254 4.19617e-005 0
          CHANNELS 3 Zrotation Xrotation Yrotation
          JOINT Spine4
          {
            OFFSET 10.9679 0 0
            CHANNELS 3 Zrotation Xrotation Yrotation
            JOINT RightShoulder
            {
              OFFSET 2.46616 -1.6653 3.69651
              CHANNELS 3 Zrotation Xrotation Yrotation
              JOINT RightArm
              {
                OFFSET 13.0012 0 0
                CHANNELS 3 Zrotation Xrotation Yrotation
                JOINT RightForeArm
                {
                  OFFSET 28.7848 1.62311e-005 0
                  CHANNELS 3 Zrotation Xrotation Yrotation
                  JOINT RightHand
                  {
                    OFFSET 26.5688 1.62095e-005 0
                    CHANNELS 3 Zrotation Xrotation Yrotation
                    End Site
                    {
                      OFFSET 0 0 0
                    }
                  }
                }
              }
            }
            JOINT LeftShoulder
            {
              OFFSET 2.38034 -1.29275 -3.7523
              CHANNELS 3 Zrotation Xrotation Yrotation
              JOINT LeftArm
              {
                OFFSET 16.3182 6.07031e-005 0
                CHANNELS 3 Zrotation Xrotation Yrotation
                JOINT LeftForeArm
                {
                  OFFSET 27.0901 0 0
                  CHANNELS 3 Zrotation Xrotation Yrotation
                  JOINT LeftHand
                  {
                    OFFSET 24.5451 1.51738e-005 0
                    CHANNELS 3 Zrotation Xrotation Yrotation
                    End Site
                    {
                      OFFSET 0 0 0
                    }
                  }
                }
              }
            }
            JOINT Neck
            {
              OFFSET 5.0226 -0.0266342 0
              CHANNELS 3 Zrotation Xrotation Yrotation
              JOINT Head
              {
                OFFSET 6.69364 2.86102e-005 0
                CHANNELS 3 Zrotation Xrotation Yrotation
                End Site
                {
                  OFFSET 0 0 0
                }
              }
            }
          }
        }
      }
    }
  }
}
MOTION
Frames:	6
Frame Time:	0.0416667
334.398 87.0283 195.097 -26.278 14.8647 80.3592 84.7506 78.1049 -168.703 7.10464 -52.991 8.85422 -7.55212 -29.034 -46.4766 -24.1583 4.64418 -117.413 -13.1381 34.3704 -99.0182 -56.7521 14.4342 25.3794 101.318 -16.3553 -1.35083 -112.251 31.5307 -13.7587 -4.17886 4.99886 -102.629 14.8439 -14.4701 -23.3588 3.05308 -15.4578 -22.7383 -18.014 -7.06187 -26.3998 1.99863 -7.06186 -26.3998 87.4659 64.1255 -47.2616 29.6991 45.6184 -178.013 -12.1388 -45.9375 -0.015396 -19.3438 1.36039 -18.597 -23.8165 -21.2424 -164.858 -46.8617 23.172 -39.6011 6.26058 74 -21.8526 81.9516 -5.38782 -10.2194 -96.5913 -50.1144 -164.316 82.8318 57.369 116.085 
334.686 86.9724 195.282 -26.9387 15.0166 80.617 81.8852 77.929 -165.835 7.35816 -53.9704 9.16325 -7.80808 -29.3591 -45.8554 -25.6919 5.22424 -117.025 -13.3056 33.7479 -99.2606 -56.6655 13.7374 25.5191 102.503 -16.9432 -1.25889 -111.138 21.8689 -8.97659 -4.16528 4.98447 -102.718 14.8502 -14.4872 -23.5371 3.05644 -15.4822 -22.9166 -17.9842 -7.03037 -26.5717 2.02842 -7.03038 -26.5718 86.9946 64.3568 -46.5404 31.1001 47.221 -179.399 -12.6914 -43.6962 -0.014809 -20.0229 1.69245 -19.9765 -24.7285 -19.7988 -164.597 -48.2576 23.2594 -38.5996 8.66071 74.9201 -24.1132 81.374 -5.11348 -9.97236 -96.4836 -50.0211 -164.452 84.2221 54.9946 114.285 
335.505 86.8481 195.812 -28.871 15.4178 81.3783 74.5055 77.2881 -158.414 8.28591 -56.51 10.0215 -8.21625 -30.1912 -43.9648 -29.2599 6.53347 -116.09 -13.783 31.901 -99.983 -56.521 11.9391 25.9876 105.585 -18.4518 -0.941136 -101.009 3.43648 0.096968 -4.11395 4.94119 -102.968 14.8755 -14.5091 -24.0386 3.07289 -15.5243 -23.419 -17.8912 -6.9169 -27.0478 2.12142 -6.91691 -27.0479 85.6589 64.9658 -44.5198 35.5817 51.7654 176.318 -14.2481 -36.6572 -0.0133468 -21.909 2.79545 -24.1026 -27.3823 -15.7934 -163.898 -52.0487 23.238 -35.6405 17.2998 77.046 -32.4621 79.672 -4.51723 -9.45659 -96.0894 -50.0902 -164.348 86.4071 49.5952 111.083 
336.78 86.534 196.625 -32.09 15.9451 82.6566 64.4582 75.8467 -148.189 9.73828 -59.766 11.2809 -8.1184 -31.3496 -41.1066 -32.952 7.87087 -115.162 -14.5782 28.5343 -101.384 -57.1344 9.42646 27.0965 110.051 -20.3821 -0.169949 -82.892 -7.52687 8.73232 -3.99021 4.86799 -103.35 14.9346 -14.4548 -24.8131 3.11717 -15.5012 -24.1989 -17.7224 -6.65806 -27.7587 2.29027 -6.65806 -27.7587 83.5926 65.7748 -41.4313 44.7163 58.9183 167.942 -16.548 -22.9874 -0.0116306 -24.4821 5.05129 -31.2975 -31.6865 -9.82131 -162.902 -57.3457 22.4158 -30.8112 35.6207 78.5791 -50.6295 76.8196 -4.0802 -9.19029 -95.4794 -50.5944 -163.331 87.7917 44.0771 108.412 
338.436 86.0193 197.675 -36.6275 16.3921 84.4586 54.0817 73.2191 -137.354 11.4246 -63.0708 12.8015 -7.16362 -32.6471 -37.7667 -35.4471 8.87508 -114.759 -15.6481 23.6064 -103.604 -58.8011 6.59742 28.9969 115.315 -22.2769 1.16549 -67.9949 -10.2336 13.7175 -3.75015 4.76913 -103.827 15.0369 -14.2214 -25.8026 3.19787 -15.3076 -25.2024 -17.4716 -6.17143 -28.6225 2.54102 -6.17143 -28.6224 80.9813 66.6144 -37.5869 64.4296 68.0785 150.092 -19.008 2.04625 -0.0107139 -25.6165 8.61904 -42.3941 -37.5396 -2.55173 -161.742 -63.7838 20.5835 -24.3105 58.4942 77.149 -72.8706 72.6423 -4.23554 -9.76905 -94.8757 -51.3257 -161.372 88.7566 39.7748 106.089 
340.401 85.3902 198.925 -42.275 16.4622 86.6697 44.2633 68.5442 -126.724 10.9594 -65.798 14.3161 -5.69751 -34.3411 -35.579 -36.3952 9.48876 -115.036 -16.8573 17.5316 -106.6 -61.2585 3.73555 31.5486 120.843 -23.8289 3.00093 -59.4938 -10.0406 15.3604 -3.37191 4.66506 -104.343 15.1623 -13.7374 -26.9066 3.29604 -14.8678 -26.3315 -17.1707 -5.41557 -29.5274 2.84191 -5.41558 -29.5274 78.1191 67.378 -33.4769 115.695 74.5027 102.48 -19.9442 45.6257 -0.0150061 -19.5385 10.0445 -56.6898 -44.6674 5.269 -160.51 -70.0858 17.3359 -16.9057 71.7634 72.0087 -85.2367 66.8427 -5.11889 -11.6582 -94.4034 -51.9825 -158.774 89.8156 36.5786 103.741 
